Coordinates
version=1
nRows=18
nColumns=34
inDegrees=no

Units are S.I. units (second, meters, Newtons, ...)
If the header above contains a line with 'inDegrees', this indicates whether rotational values are in degrees (yes) or radians (no).

endheader
time	pelvis_tilt	pelvis_list	pelvis_rotation	pelvis_tx	pelvis_ty	pelvis_tz	hip_flexion_r	hip_adduction_r	hip_rotation_r	knee_angle_r	ankle_angle_r	subtalar_angle_r	mtp_angle_r	hip_flexion_l	hip_adduction_l	hip_rotation_l	knee_angle_l	ankle_angle_l	subtalar_angle_l	mtp_angle_l	lumbar_extension	lumbar_bending	lumbar_rotation	arm_flex_r	arm_add_r	arm_rot_r	elbow_flex_r	pro_sup_r	arm_flex_l	arm_add_l	arm_rot_l	elbow_flex_l	pro_sup_l
0.02	-0.118534	0.00818756	2.38825	1.44239	0.893425	-0.993715	-0.0711328	-0.0787407	-0.483149	0.254247	0.197011	0.455144	-0.133286	-0.118093	0.0567031	-0.316707	0.135285	0.0997626	0.549118	-0.133286	-0.187331	-0.0860759	-0.126709	-0.805335	-0.728177	0.643251	1.82018	0.525281	-0.21771	-0.214521	0.0941345	0.627017	1.56645
0.0399941	-0.120992	0.0130939	2.39087	1.44114	0.893896	-0.993596	-0.0750122	-0.0775557	-0.484266	0.262871	0.207138	0.442699	-0.133286	-0.126088	0.0556925	-0.314032	0.132483	0.0995225	0.550128	-0.133286	-0.194905	-0.0831992	-0.128156	-0.804602	-0.730056	0.645582	1.82534	0.543557	-0.213983	-0.233165	0.156055	0.631532	1.50789
0.0599881	-0.123441	0.0178503	2.39336	1.43988	0.894364	-0.993533	-0.078801	-0.0767358	-0.486641	0.271661	0.216525	0.432399	-0.133286	-0.134134	0.0548633	-0.311014	0.129399	0.0992723	0.550598	-0.133286	-0.20228	-0.0802458	-0.129457	-0.804276	-0.732092	0.647762	1.83087	0.561146	-0.210899	-0.246717	0.201946	0.634843	1.4645
0.0799822	-0.125641	0.0213877	2.39551	1.43862	0.894724	-0.993629	-0.0821486	-0.0766876	-0.489409	0.278763	0.223576	0.425373	-0.133286	-0.141224	0.0548058	-0.307563	0.126191	0.0991646	0.550146	-0.133286	-0.208297	-0.0778949	-0.130479	-0.804505	-0.73452	0.65028	1.8368	0.57723	-0.208912	-0.254122	0.227952	0.636863	1.43994
0.0999763	-0.127354	0.0233118	2.39729	1.43742	0.894934	-0.993964	-0.084752	-0.0773557	-0.492376	0.283786	0.228218	0.421581	-0.133286	-0.146779	0.0554867	-0.303899	0.123142	0.0992853	0.54904	-0.133286	-0.212336	-0.076414	-0.131294	-0.805089	-0.737611	0.653686	1.84228	0.591672	-0.208157	-0.255747	0.234876	0.637769	1.43362
0.11997	-0.128249	0.0235949	2.39883	1.43633	0.894981	-0.994579	-0.0863131	-0.0783564	-0.495633	0.286872	0.230935	0.420561	-0.133286	-0.150268	0.0564392	-0.300614	0.120745	0.0996407	0.548115	-0.133286	-0.214085	-0.075811	-0.132169	-0.805247	-0.741513	0.658551	1.84472	0.60516	-0.208704	-0.252115	0.224	0.6378	1.44437
0.139964	-0.127936	0.0224899	2.40033	1.43541	0.894868	-0.995456	-0.0865622	-0.0790993	-0.499295	0.288382	0.232254	0.421654	-0.133286	-0.151132	0.0568946	-0.298611	0.119781	0.100237	0.548502	-0.133286	-0.21348	-0.0757886	-0.133477	-0.803265	-0.746051	0.665584	1.83897	0.619488	-0.210567	-0.243537	0.195994	0.637122	1.47131
0.159959	-0.126035	0.0204451	2.40214	1.43468	0.894596	-0.99653	-0.0853954	-0.078922	-0.50361	0.288648	0.232549	0.424348	-0.133286	-0.14886	0.0559384	-0.298859	0.121257	0.101161	0.551373	-0.133286	-0.210583	-0.0757425	-0.135714	-0.796013	-0.750301	0.675526	1.81655	0.638035	-0.213556	-0.230606	0.152638	0.635762	1.51231
0.179953	-0.122291	0.0180349	2.40478	1.43409	0.894152	-0.997709	-0.0831229	-0.0771829	-0.509227	0.287655	0.232012	0.428669	-0.133286	-0.143178	0.0526724	-0.302135	0.126179	0.102583	0.557781	-0.133286	-0.20551	-0.0748651	-0.13959	-0.778663	-0.752194	0.688274	1.76607	0.666058	-0.216993	-0.215538	0.101164	0.633663	1.56046
0.199947	-0.116821	0.0161546	2.40895	1.43353	0.893538	-0.99888	-0.0807539	-0.0732158	-0.516814	0.285073	0.230728	0.434621	-0.133286	-0.134574	0.0463301	-0.308679	0.135145	0.104729	0.568204	-0.133286	-0.198803	-0.0721997	-0.14578	-0.745429	-0.747874	0.701237	1.67651	0.709659	-0.219644	-0.203963	0.0595357	0.631623	1.59912
0.219941	-0.110184	0.0160176	2.41488	1.43293	0.892808	-0.999918	-0.0797679	-0.0665079	-0.526439	0.280605	0.228673	0.442126	-0.133286	-0.124629	0.0365887	-0.317985	0.14771	0.107782	0.581741	-0.133286	-0.191604	-0.0666752	-0.154063	-0.691613	-0.731141	0.707693	1.54258	0.775798	-0.220768	-0.198061	0.0348667	0.630456	1.62218
0.239935	-0.104016	0.0193368	2.42113	1.43223	0.892138	-1.0007	-0.0823603	-0.0573371	-0.536689	0.274493	0.225803	0.451302	-0.133286	-0.117386	0.0244464	-0.328714	0.160807	0.111396	0.595466	-0.133286	-0.186414	-0.057505	-0.162052	-0.61648	-0.694662	0.695947	1.36915	0.870312	-0.219463	-0.1978	0.0288242	0.630752	1.6289
0.259929	-0.101715	0.0283852	2.42289	1.43135	0.891847	-1.00115	-0.0915871	-0.0479302	-0.543874	0.26837	0.222213	0.46379	-0.133286	-0.121161	0.0134829	-0.340199	0.166522	0.113537	0.606106	-0.133286	-0.18748	-0.0446797	-0.163537	-0.526187	-0.634063	0.649479	1.17189	0.995894	-0.214465	-0.201408	0.0415391	0.632633	1.62048
0.279923	-0.10337	0.0423851	2.41907	1.43038	0.891993	-1.00128	-0.106393	-0.0391525	-0.546074	0.262864	0.21817	0.477722	-0.133286	-0.136167	0.00510535	-0.351521	0.163112	0.11348	0.612852	-0.133286	-0.194605	-0.0291838	-0.156453	-0.430648	-0.549165	0.554129	0.971359	1.15083	-0.205917	-0.208355	0.0728613	0.63662	1.59785
0.299917	-0.107253	0.0585113	2.41046	1.42955	0.892466	-1.00115	-0.123002	-0.0316858	-0.543037	0.258572	0.213975	0.490615	-0.133286	-0.158096	-8.86878e-05	-0.361436	0.151877	0.111188	0.615652	-0.133286	-0.204862	-0.0128994	-0.141568	-0.340168	-0.446896	0.406501	0.78949	1.32806	-0.194842	-0.218454	0.121833	0.642905	1.56243
0.319911	-0.111147	0.0732522	2.39811	1.42902	0.893068	-1.00086	-0.136714	-0.0263983	-0.535342	0.25637	0.210034	0.500762	-0.133286	-0.181366	-0.00165463	-0.368715	0.135038	0.107034	0.61414	-0.133286	-0.214388	0.0019814	-0.121032	-0.261637	-0.342072	0.228375	0.645644	1.50921	-0.182616	-0.230933	0.185142	0.650889	1.5174
0.339905	-0.113487	0.0841836	2.38261	1.42886	0.893598	-1.00042	-0.144173	-0.0240434	-0.523868	0.257164	0.206777	0.508131	-0.133286	-0.201874	0.000546069	-0.373003	0.114966	0.101896	0.607183	-0.133286	-0.220432	0.014099	-0.0968343	-0.19724	-0.257662	0.0820253	0.553195	1.64859	-0.170328	-0.243181	0.254529	0.658575	1.47075
0.359899	-0.112878	0.0894241	2.36404	1.42898	0.893872	-0.999867	-0.142627	-0.0252515	-0.509038	0.261735	0.204709	0.513189	-0.133286	-0.216353	0.0065668	-0.374342	0.093788	0.0968184	0.593125	-0.133286	-0.220574	0.0226905	-0.0697431	-0.146587	-0.200881	-0.00821088	0.502465	1.74165	-0.158441	-0.249615	0.31396	0.661631	1.4367
